<?xml version="1.0" standalone="no"?>
<!DOCTYPE svg PUBLIC "-//W3C//DTD SVG 20010904//EN"
 "http://www.w3.org/TR/2001/REC-SVG-20010904/DTD/svg10.dtd">
<svg version="1.0" xmlns="http://www.w3.org/2000/svg"
 width="1024.000000pt" height="1024.000000pt" viewBox="0 0 1024.000000 1024.000000"
 preserveAspectRatio="xMidYMid meet">
<metadata>
Created by potrace 1.11, written by Peter Selinger 2001-2013
</metadata>
<g transform="translate(0.000000,1024.000000) scale(0.100000,-0.100000)"
fill="#000000" stroke="none">
<path d="M304 9934 l308 -312 -87 -98 c-283 -322 -469 -745 -515 -1176 -14
-135 -14 -6321 0 -6456 56 -523 313 -1021 702 -1363 329 -289 747 -472 1180
-519 135 -14 6321 -14 6456 0 432 46 847 228 1178 517 388 337 648 842 704
1365 14 135 14 6321 0 6456 -47 433 -230 851 -519 1180 -342 389 -840 646
-1363 702 -135 14 -6321 14 -6456 0 -431 -46 -854 -232 -1176 -515 l-98 -87
-312 308 -311 309 309 -311z m5261 -2229 c979 -116 1811 -561 2320 -1240 469
-626 589 -1392 328 -2095 -306 -822 -1099 -1473 -2112 -1736 -647 -167 -1359
-164 -2006 11 l-131 36 -109 -42 c-431 -162 -1107 -385 -1455 -479 -63 -17
-124 -34 -135 -37 -11 -3 41 57 115 134 187 193 736 811 728 818 -2 2 -53 39
-114 83 -641 457 -1017 1061 -1094 1757 -29 267 8 595 99 872 308 938 1237
1663 2405 1877 121 23 345 51 476 60 117 8 561 -4 685 -19z"/>
</g>
</svg>
