<?xml version="1.0" standalone="no"?>
<!DOCTYPE svg PUBLIC "-//W3C//DTD SVG 20010904//EN"
 "http://www.w3.org/TR/2001/REC-SVG-20010904/DTD/svg10.dtd">
<svg version="1.0" xmlns="http://www.w3.org/2000/svg"
 width="1024.000000pt" height="1024.000000pt" viewBox="0 0 1024.000000 1024.000000"
 preserveAspectRatio="xMidYMid meet">
<metadata>
Created by potrace 1.11, written by Peter Selinger 2001-2013
</metadata>
<g transform="translate(0.000000,1024.000000) scale(0.100000,-0.100000)"
fill="#000000" stroke="none">
<path d="M2495 10229 c-556 -26 -944 -108 -1254 -264 -428 -214 -764 -555
-977 -990 -150 -308 -227 -682 -254 -1245 -13 -283 -13 -4950 0 -5225 29 -586
105 -949 266 -1266 183 -360 455 -660 784 -863 381 -236 761 -332 1445 -366
267 -13 4963 -13 5230 0 684 34 1064 130 1445 366 329 203 601 503 784 863
160 316 236 675 266 1261 14 268 13 4945 0 5230 -27 563 -104 937 -254 1245
-151 309 -360 566 -624 768 -424 325 -844 450 -1642 487 -256 12 -4959 11
-5215 -1z m2995 -2189 c660 -58 1280 -282 1780 -643 524 -377 893 -899 1036
-1463 54 -216 68 -332 68 -569 0 -383 -70 -686 -239 -1030 -138 -282 -284
-484 -520 -721 -88 -89 -207 -199 -265 -244 -540 -423 -1191 -677 -1920 -746
-124 -12 -233 -15 -440 -11 -295 5 -425 18 -672 67 l-147 30 -214 -79 c-460
-171 -988 -345 -1351 -447 -88 -25 -170 -48 -181 -51 -11 -3 34 50 100 118
231 239 729 805 720 819 -2 4 -43 31 -90 59 -721 442 -1193 1129 -1290 1874
-19 153 -19 432 0 584 71 542 326 1044 745 1463 552 553 1311 900 2155 985
159 16 569 18 725 5z"/>
</g>
</svg>
